PathFileType   4   (X/Y/Z)																																																																																																																							
DataRate	CameraRate	NumFrames	NumMarkers	Units	OrigDataRate	OrigDataStartFrame	OrigNumFrames																																																																																																																
120	120	6	39	mm	120	40	156																																																																																																																
Frame#	Time	Sternum	R.Acromium	L.Acromium	Top.Head	R.ASIS	L.ASIS	V.Sacral	R.Thigh.Upper	R.Thigh.Front	R.Thigh.Rear	R.Knee.Lat	R.Knee.Med	R.Shank.Upper	R.Shank.Front	R.Shank.Rear	R.Ankle.Lat	R.Ankle.Med	R.Heel	R.Midfoot.Sup	R.Midfoot.Lat	R.Toe.Lat	R.Toe.Med	R.Toe.Tip	L.Thigh.Upper	L.Thigh.Front	L.Thigh.Rear	L.Knee.Lat	L.Knee.Med	L.Shank.Upper	L.Shank.Front	L.Shank.Rear	L.Ankle.Lat	L.Ankle.Med	L.Heel	L.Midfoot.Sup	L.Midfoot.Lat	L.Toe.Lat	L.Toe.Med	L.Toe.Tip																																																																															
 	 	X1	Y1	Z1	X2	Y2	Z2	X3	Y3	Z3	X4	Y4	Z4	X5	Y5	Z5	X6	Y6	Z6	X7	Y7	Z7	X8	Y8	Z8	X9	Y9	Z9	X10	Y10	Z10	X11	Y11	Z11	X12	Y12	Z12	X13	Y13	Z13	X14	Y14	Z14	X15	Y15	Z15	X16	Y16	Z16	X17	Y17	Z17	X18	Y18	Z18	X19	Y19	Z19	X20	Y20	Z20	X21	Y21	Z21	X22	Y22	Z22	X23	Y23	Z23	X24	Y24	Z24	X25	Y25	Z25	X26	Y26	Z26	X27	Y27	Z27	X28	Y28	Z28	X29	Y29	Z29	X30	Y30	Z30	X31	Y31	Z31	X32	Y32	Z32	X33	Y33	Z33	X34	Y34	Z34	X35	Y35	Z35	X36	Y36	Z36	X37	Y37	Z37	X38	Y38	Z38	X39	Y39	Z39	
																																																																																																																							
	40	0.59167	1744.627535	-0.000992919	1241.299887	1638.431847	-160.4625222	1365.605407	1643.009255	163.6853836	1378.753581	1753.757012	-9.995724821	1612.075206	1715.201498	-119.563877	901.8228096	1719.899845	121.1976851	893.6031732	1538.045015	-5.695750883	928.9212719	1732.05168	-151.852957	672.075131	1796.763972	-72.89581202	646.2079772	1766.563664	-144.0380039	577.627481	1766.830922	-128.7803171	499.513419	1771.37063	-28.27664901	486.3730978	1755.370643	-139.9773559	425.5484822	1818.332974	-92.759033	391.0013381	1764.408314	-148.0192813	350.9290435	1750.620613	-126.2596959	103.7826793	1758.156177	-48.83628676	115.915899	1689.652886	-81.79932302	83.92367441	1816.794216	-50.48617332	94.86087501	1812.24432	-145.6838404	77.30448293	1891.832315	-153.7519611	56.55766601	1893.823425	-57.55224411	68.16903693	1947.879091	-85.7250635	68.94814194	1631.708413	155.8898652	645.0858353	1693.547531	93.1736068	605.4337642	1616.232156	143.1256019	555.9518117	1585.554776	130.2344758	450.4168713	1586.614776	33.90932835	450.921468	1572.015823	146.028905	382.1109391	1599.826333	97.96343807	331.4165827	1549.184104	155.397025	348.9145302	1503.604473	125.837295	80.19483074	1511.492992	46.58044596	99.1258916	1433.258797	79.29350631	69.47959576	1586.163872	55.87355549	67.46186234	1569.859504	143.3687015	67.92343083	1625.374413	152.6622596	45.72337415	1640.487132	62.03409965	45.2775823	1684.137298	84.48225282	44.77846008
	41	0.6	1750.568867	-0.000992919	1240.514808	1644.446217	-160.4625222	1364.882688	1649.031347	163.6853836	1378.028172	1759.916142	-9.995724821	1611.284701	1720.922991	-119.563877	901.0170137	1725.61364	121.1976851	892.7929822	1543.791956	-5.695750883	928.2813219	1738.111145	-151.852957	671.6920017	1802.896504	-72.89581202	646.008395	1772.890725	-144.0380039	577.342564	1773.379417	-128.7803171	499.2295735	1777.956356	-28.27664901	486.102174	1763.429411	-139.9773559	424.6219061	1827.574554	-92.759033	392.3239043	1775.101351	-148.0192813	350.3689201	1770.065959	-126.2596959	102.8894848	1777.16755	-48.83628676	115.2817061	1709.761822	-81.79932302	81.07215476	1836.480516	-50.48617332	96.13578027	1832.503621	-145.6838404	78.44078755	1912.72386	-153.7519611	60.29160956	1914.336539	-57.55224411	71.96155908	1968.338326	-85.7250635	74.49710829	1635.692813	155.8898652	644.2304877	1697.150601	93.1736068	603.9899165	1619.366402	143.1256019	555.2482594	1587.682999	130.2344758	450.010969	1588.747767	33.90932835	450.5054241	1573.730146	146.028905	381.8128157	1601.285037	97.96343807	330.9790653	1550.731559	155.397025	348.7317942	1503.799398	125.837295	80.24501257	1511.783143	46.58044596	99.13611167	1433.431764	79.29350631	69.73399187	1586.330539	55.87355549	67.28490304	1570.027538	143.3687015	67.79246626	1625.479597	152.6622596	45.43588374	1640.590998	62.03409965	44.94745888	1684.239582	84.48225282	44.32519633
	42	0.60833	1756.54146	-0.000992919	1239.696683	1650.479168	-160.4625222	1364.116041	1655.070676	163.6853836	1377.259298	1766.068638	-9.995724821	1610.461997	1726.702323	-119.563877	900.1602644	1731.384979	121.1976851	891.9316793	1549.597861	-5.695750883	927.5966609	1744.112375	-151.852957	671.1728909	1808.95067	-72.89581202	645.6232155	1779.086851	-144.0380039	576.8955253	1779.736959	-128.7803171	498.7837115	1784.341016	-28.27664901	485.6657981	1771.272133	-139.9773559	423.5769131	1836.507119	-92.759033	393.5409873	1785.532617	-148.0192813	349.7773283	1789.151495	-126.2596959	102.2731267	1795.815548	-48.83628676	114.906026	1729.549232	-81.79932302	78.5770188	1855.729143	-50.48617332	97.63404365	1852.312917	-145.6838404	79.82230975	1933.066189	-153.7519611	64.21498646	1934.309606	-57.55224411	75.93003522	1988.204415	-85.7250635	80.16932728	1639.737861	155.8898652	643.34412	1700.810346	93.1736068	602.5211499	1622.566324	143.1256019	554.5211108	1589.883968	130.2344758	449.5897574	1590.953389	33.90932835	450.0740685	1575.51071	146.028905	381.502712	1602.800854	97.96343807	330.5263427	1552.340388	155.397025	348.5417481	1504.012526	125.837295	80.30268038	1512.094411	46.58044596	99.15200246	1433.623034	79.29350631	70.00170089	1586.514061	55.87355549	67.10914308	1570.212601	143.3687015	67.66399063	1625.599583	152.6622596	45.14666477	1640.709503	62.03409965	44.61441171	1684.356099	84.48225282	43.86555008
	43	0.61667	1762.545152	-0.000992919	1238.847846	1656.528639	-160.4625222	1363.306214	1661.124982	163.6853836	1376.447781	1772.208727	-9.995724821	1609.60963	1732.543976	-119.563877	899.2535511	1737.218404	121.1976851	891.0202888	1555.467031	-5.695750883	926.8669858	1750.067871	-151.852957	670.522861	1814.940473	-72.89581202	645.0604203	1785.169124	-144.0380039	576.2926235	1785.924296	-128.7803171	498.1817548	1790.545994	-28.27664901	485.070046	1778.910292	-139.9773559	422.4200859	1845.139397	-92.759033	394.6448091	1795.699702	-148.0192813	349.1544334	1807.82606	-126.2596959	101.920986	1814.051832	-48.83628676	114.7755379	1748.956484	-81.79932302	76.42905316	1874.494724	-50.48617332	99.33517353	1871.624698	-145.6838404	81.42731473	1952.817415	-153.7519611	68.2963547	1953.702058	-57.55224411	80.04394426	2007.442051	-85.7250635	85.92911139	1643.849062	155.8898652	642.4268341	1704.532433	93.1736068	601.0276576	1625.837607	143.1256019	553.7703275	1592.163568	130.2344758	449.1530041	1593.237524	33.90932835	449.6271717	1577.363177	146.028905	381.1804947	1604.379219	97.96343807	330.0583302	1554.016211	155.397025	348.3444152	1504.24878	125.837295	80.36870279	1512.431756	46.58044596	99.17435878	1433.837291	79.29350631	70.28508911	1586.718947	55.87355549	66.93359535	1570.419226	143.3687015	67.5373742	1625.738365	152.6622596	44.85388889	1640.84662	62.03409965	44.2762812	1684.490771	84.48225282	43.3964044
	44	0.625	1768.581684	-0.000992919	1237.971148	1662.595081	-160.4625222	1362.454988	1667.194582	163.6853836	1375.59545	1778.334353	-9.995724821	1608.730599	1738.453011	-119.563877	898.2991344	1743.119039	121.1976851	890.0611091	1561.40432	-5.695750883	926.0931471	1755.990967	-151.852957	669.7487957	1820.880703	-72.89581202	644.3300512	1791.155674	-144.0380039	575.5422197	1791.963453	-128.7803171	497.4318772	1796.593979	-28.27664901	484.323284	1786.356123	-139.9773559	421.1597515	1853.482111	-92.759033	395.6281635	1805.60071	-148.0192813	348.500368	1826.037216	-126.2596959	101.8147883	1831.827034	-48.83628676	114.8715015	1767.92324	-81.79932302	74.61349603	1892.731159	-50.48617332	101.212809	1890.390632	-145.6838404	83.22808235	1971.935357	-153.7519611	72.49788103	1972.473082	-57.55224411	84.26645386	2026.016087	-85.7250635	91.73429666	1648.031801	155.8898652	641.4798856	1708.322233	93.1736068	599.5105261	1629.18544	143.1256019	552.9971001	1594.526738	130.2344758	448.7018478	1595.605116	33.90932835	449.1658708	1579.292473	146.028905	380.84742	1606.025081	97.96343807	329.5764739	1555.764078	155.397025	348.1410961	1504.513855	125.837295	80.4450106	1512.800817	46.58044596	99.20507617	1434.07985	79.29350631	70.58831889	1586.950243	55.87355549	66.75739729	1570.652496	143.3687015	67.41228989	1625.900227	152.6622596	44.55543261	1641.006596	62.03409965	43.93044754	1684.647773	84.48225282	42.91370488
	45	0.63333	1774.654875	-0.000992919	1237.069828	1668.681786	-160.4625222	1361.565173	1673.282712	163.6853836	1374.705136	1784.447791	-9.995724821	1607.828218	1744.434906	-119.563877	897.3005984	1749.092437	121.1976851	889.0577654	1567.414974	-5.695750883	925.2771891	1761.8952	-151.852957	668.8589774	1826.786234	-72.89581202	643.4435457	1797.064717	-144.0380039	574.6541967	1797.876483	-128.7803171	496.5438956	1802.507679	-28.27664901	483.4355388	1793.621584	-139.9773559	419.8053148	1861.547126	-92.759033	396.4840591	1815.233599	-148.0192813	347.8146144	1843.731798	-126.2596959	101.9299286	1849.091241	-48.83628676	115.1691172	1786.38793	-81.79932302	73.1094234	1910.392161	-50.48617332	103.2340116	1908.562102	-145.6838404	85.19019434	1990.378093	-153.7519611	76.77455638	1990.582185	-57.55224411	88.55363959	2043.892124	-85.7250635	97.53541985	1652.291466	155.8898652	640.5057751	1712.184998	93.1736068	597.9719269	1632.614771	143.1256019	552.2039274	1596.977896	130.2344758	448.2388443	1598.060586	33.90932835	448.6927171	1581.3031	146.028905	380.5061774	1607.743094	97.96343807	329.0837217	1557.588703	155.397025	347.9344667	1504.813782	125.837295	80.53478957	1513.207518	46.58044596	99.2473253	1434.356266	79.29350631	70.91738886	1587.213134	55.87355549	66.58021631	1570.917645	143.3687015	67.28907975	1626.089376	152.6622596	44.24937991	1641.193592	62.03409965	43.5743694	1684.831163	84.48225282	42.41310268
